<svg width="300" height="96" viewBox="0 0 300 96" fill="none" xmlns="http://www.w3.org/2000/svg" role="img" aria-label="متقن — بوسترات كورية">
  <g transform="translate(8 18)">
    <rect width="60" height="60" rx="13.2" fill="#FFFFFF" fill-opacity="0.12"/>
    <rect width="60" height="60" rx="13.2" stroke="#C8942E" stroke-width="1.2" fill="none" opacity="0.5"/>
    <circle cx="30" cy="30" r="23.4" stroke="#E8C06A" stroke-width="1.2" opacity="0.45" fill="none"/>
    <path d="M30 8.4C30 8.4 40.8 21.6 40.8 31.5C40.8 40.2 33.6 45.6 30 45.6C26.4 45.6 19.2 40.2 19.2 31.5C19.2 21.6 30 8.4 30 8.4Z" fill="#FFFFFF" fill-opacity="0.95"/>
    <path d="M27.6 29.4C27.6 24.6 30 20.4 30 20.4C30 20.4 32.4 24.6 32.4 29.4C32.4 32.4 30 33.6 27.6 29.4Z" fill="#E8C06A" opacity="0.65"/>
    <circle cx="42.6" cy="11.4" r="4.2" fill="#E8C06A"/>
  </g>
  <text x="168" y="40" text-anchor="middle" dominant-baseline="middle" fill="#FFFFFF" style="font-family:'Tajawal','IBM Plex Sans Arabic','Noto Sans Arabic',sans-serif;font-size:36px;font-weight:800;letter-spacing:-0.03em">&#1605;&#1578;&#1602;&#1606;</text>
  <text x="168" y="66" text-anchor="middle" dominant-baseline="middle" fill="rgba(255,255,255,0.78)" style="font-family:'Tajawal','IBM Plex Sans Arabic',sans-serif;font-size:11px;font-weight:600;letter-spacing:0.12em">&#1576;&#1608;&#1587;&#1578;&#1585;&#1575;&#1578; &#1603;&#1608;&#1585;&#1610;&#1577;</text>
</svg>
