<svg width="160" height="176" viewBox="0 0 160 176" fill="none" xmlns="http://www.w3.org/2000/svg" role="img" aria-label="متقن — بوسترات كورية">
  <g transform="translate(50 12)">
    <rect width="60" height="60" rx="13.2" fill="#1A4731"/>
    <circle cx="30" cy="30" r="23.4" stroke="#C8942E" stroke-width="1.2" opacity="0.45" fill="none"/>
    <path d="M30 8.4C30 8.4 40.8 21.6 40.8 31.5C40.8 40.2 33.6 45.6 30 45.6C26.4 45.6 19.2 40.2 19.2 31.5C19.2 21.6 30 8.4 30 8.4Z" fill="#F9F8F3" fill-opacity="0.95"/>
    <path d="M27.6 29.4C27.6 24.6 30 20.4 30 20.4C30 20.4 32.4 24.6 32.4 29.4C32.4 32.4 30 33.6 27.6 29.4Z" fill="#C8942E" opacity="0.55"/>
    <circle cx="42.6" cy="11.4" r="4.2" fill="#C8942E"/>
  </g>
  <text x="80" y="118" text-anchor="middle" dominant-baseline="middle" fill="#1A4731" style="font-family:'Tajawal','IBM Plex Sans Arabic','Noto Sans Arabic',sans-serif;font-size:38px;font-weight:800;letter-spacing:-0.03em">&#1605;&#1578;&#1602;&#1606;</text>
  <text x="80" y="148" text-anchor="middle" dominant-baseline="middle" fill="#5A6578" style="font-family:'Tajawal','IBM Plex Sans Arabic',sans-serif;font-size:10px;font-weight:600;letter-spacing:0.12em">&#1576;&#1608;&#1587;&#1578;&#1585;&#1575;&#1578; &#1603;&#1608;&#1585;&#1610;&#1577;</text>
</svg>
