<svg width="148" height="172" viewBox="0 0 148 172" fill="none" xmlns="http://www.w3.org/2000/svg" role="img" aria-label="Mutqan stacked logo">
  <g transform="translate(50 12)">
    <path d="M30 2C33 18 42 27 58 30C42 33 33 42 30 58C27 42 18 33 2 30C18 27 27 18 30 2Z" stroke="#D4AF37" stroke-width="2.6" stroke-linecap="round" stroke-linejoin="round"/>
    <path d="M30 20L40 30L30 40L20 30L30 20Z" stroke="#08152D" stroke-width="2.2" stroke-linecap="round" stroke-linejoin="round"/>
    <path d="M46 8L47.5 12.5L52 14L47.5 15.5L46 20L44.5 15.5L40 14L44.5 12.5L46 8Z" fill="#D4AF37"/>
    <path d="M12 44L13.2 47.8L17 49L13.2 50.2L12 54L10.8 50.2L7 49L10.8 47.8L12 44Z" fill="#D4AF37" opacity="0.72"/>
    <path d="M30 2C30 16 30 44 30 58" stroke="#FAF8F1" stroke-width="1" stroke-linecap="round" opacity="0.65"/>
  </g>
  <text x="74" y="116" text-anchor="middle" dominant-baseline="middle" fill="#08152D" style="font-family:'Aref Ruqaa','Noto Nastaliq Urdu','IBM Plex Sans Arabic','Tajawal','Noto Sans Arabic',sans-serif;font-size:40px;font-weight:700;letter-spacing:-0.055em">&#1605;&#1578;&#1602;&#1606;</text>
  <text x="74" y="146" text-anchor="middle" dominant-baseline="middle" fill="#5F6675" style="font-family:'Inter',system-ui,sans-serif;font-size:9px;font-weight:400;letter-spacing:0.5em">MUTQAN</text>
</svg>
