<svg width="96" height="96" viewBox="0 0 96 96" fill="none" xmlns="http://www.w3.org/2000/svg" role="img" aria-label="Mutqan icon">
  <defs>
    <linearGradient id="g" x1="18" y1="14" x2="78" y2="82" gradientUnits="userSpaceOnUse">
      <stop stop-color="#E8C7B7"/>
      <stop offset="0.48" stop-color="#D4AF37"/>
      <stop offset="1" stop-color="#B89124"/>
    </linearGradient>
  </defs>
  <path d="M48 8L82 28V68L48 88L14 68V28L48 8Z" stroke="url(#g)" stroke-width="3" stroke-linejoin="round"/>
  <path d="M27 54C33 37 42 29 48 29C54 29 63 37 69 54" stroke="#07152F" stroke-width="4" stroke-linecap="round" stroke-linejoin="round"/>
  <path d="M32 62V42L48 58L64 42V62" stroke="#07152F" stroke-width="4" stroke-linecap="round" stroke-linejoin="round"/>
  <path d="M48 23C44 31 44 38 48 45C52 38 52 31 48 23Z" fill="#E8C7B7" opacity="0.9"/>
  <path d="M73 18L75 23L80 25L75 27L73 32L71 27L66 25L71 23L73 18Z" fill="#D4AF37"/>
</svg>
