<svg width="96" height="96" viewBox="0 0 96 96" fill="none" xmlns="http://www.w3.org/2000/svg" role="img" aria-label="Mutqan favicon">
  <rect width="96" height="96" rx="24" fill="#FAF8F1"/>
  <g transform="translate(18 18)">
    <path d="M30 2C33 18 42 27 58 30C42 33 33 42 30 58C27 42 18 33 2 30C18 27 27 18 30 2Z" stroke="#D4AF37" stroke-width="2.8" stroke-linecap="round" stroke-linejoin="round"/>
    <path d="M30 20L40 30L30 40L20 30L30 20Z" stroke="#08152D" stroke-width="2.2" stroke-linecap="round" stroke-linejoin="round"/>
    <path d="M46 8L47.5 12.5L52 14L47.5 15.5L46 20L44.5 15.5L40 14L44.5 12.5L46 8Z" fill="#D4AF37"/>
    <path d="M12 44L13.2 47.8L17 49L13.2 50.2L12 54L10.8 50.2L7 49L10.8 47.8L12 44Z" fill="#D4AF37" opacity="0.72"/>
  </g>
</svg>
